<mxfile host="www.draw.io" modified="2020-02-18T09:12:49.614Z" agent="Mozilla/5.0 (Macintosh; Intel Mac OS X 10_14_6) AppleWebKit/537.36 (KHTML, like Gecko) Chrome/80.0.3987.106 Safari/537.36" etag="m3UhltFAbFbu0EvKkv5h" version="12.7.1" type="github">
  <diagram id="qogA_VVqE33rdXrMglXi" name="第 1 页">
    <mxGraphModel dx="1138" dy="591" grid="1" gridSize="10" guides="1" tooltips="1" connect="1" arrows="1" fold="1" page="1" pageScale="1" pageWidth="850" pageHeight="1100" math="0" shadow="0">
      <root>
        <mxCell id="0" />
        <mxCell id="1" parent="0" />
        <mxCell id="HdVoO7i6c_h7ApPIf5o0-1" style="edgeStyle=orthogonalEdgeStyle;rounded=0;orthogonalLoop=1;jettySize=auto;html=1;entryX=0.5;entryY=0;entryDx=0;entryDy=0;" edge="1" parent="1" source="HdVoO7i6c_h7ApPIf5o0-3" target="HdVoO7i6c_h7ApPIf5o0-8">
          <mxGeometry relative="1" as="geometry" />
        </mxCell>
        <mxCell id="HdVoO7i6c_h7ApPIf5o0-2" value="Binder通信" style="text;html=1;align=center;verticalAlign=middle;resizable=0;points=[];labelBackgroundColor=#ffffff;" vertex="1" connectable="0" parent="HdVoO7i6c_h7ApPIf5o0-1">
          <mxGeometry x="-0.1429" y="4" relative="1" as="geometry">
            <mxPoint as="offset" />
          </mxGeometry>
        </mxCell>
        <mxCell id="HdVoO7i6c_h7ApPIf5o0-3" value="Launcher" style="rounded=0;whiteSpace=wrap;html=1;" vertex="1" parent="1">
          <mxGeometry x="190" y="40" width="120" height="60" as="geometry" />
        </mxCell>
        <mxCell id="HdVoO7i6c_h7ApPIf5o0-4" style="edgeStyle=orthogonalEdgeStyle;rounded=0;orthogonalLoop=1;jettySize=auto;html=1;entryX=0.5;entryY=0;entryDx=0;entryDy=0;" edge="1" parent="1" source="HdVoO7i6c_h7ApPIf5o0-8" target="HdVoO7i6c_h7ApPIf5o0-11">
          <mxGeometry relative="1" as="geometry" />
        </mxCell>
        <mxCell id="HdVoO7i6c_h7ApPIf5o0-5" value="1.Socket" style="text;html=1;align=center;verticalAlign=middle;resizable=0;points=[];labelBackgroundColor=#ffffff;" vertex="1" connectable="0" parent="HdVoO7i6c_h7ApPIf5o0-4">
          <mxGeometry x="0.4333" y="4" relative="1" as="geometry">
            <mxPoint as="offset" />
          </mxGeometry>
        </mxCell>
        <mxCell id="HdVoO7i6c_h7ApPIf5o0-6" style="edgeStyle=orthogonalEdgeStyle;rounded=0;orthogonalLoop=1;jettySize=auto;html=1;entryX=0.5;entryY=0;entryDx=0;entryDy=0;" edge="1" parent="1" source="HdVoO7i6c_h7ApPIf5o0-8" target="HdVoO7i6c_h7ApPIf5o0-14">
          <mxGeometry relative="1" as="geometry" />
        </mxCell>
        <mxCell id="HdVoO7i6c_h7ApPIf5o0-7" value="2.Binder进程间通信" style="text;html=1;align=center;verticalAlign=middle;resizable=0;points=[];labelBackgroundColor=#ffffff;" vertex="1" connectable="0" parent="HdVoO7i6c_h7ApPIf5o0-6">
          <mxGeometry x="-0.1652" y="3" relative="1" as="geometry">
            <mxPoint as="offset" />
          </mxGeometry>
        </mxCell>
        <mxCell id="HdVoO7i6c_h7ApPIf5o0-8" value="AMS" style="rounded=0;whiteSpace=wrap;html=1;" vertex="1" parent="1">
          <mxGeometry x="190" y="170" width="120" height="60" as="geometry" />
        </mxCell>
        <mxCell id="HdVoO7i6c_h7ApPIf5o0-9" style="edgeStyle=orthogonalEdgeStyle;rounded=0;orthogonalLoop=1;jettySize=auto;html=1;entryX=0.5;entryY=0;entryDx=0;entryDy=0;" edge="1" parent="1" source="HdVoO7i6c_h7ApPIf5o0-11" target="HdVoO7i6c_h7ApPIf5o0-12">
          <mxGeometry relative="1" as="geometry" />
        </mxCell>
        <mxCell id="HdVoO7i6c_h7ApPIf5o0-10" value="同一个进程中，不需要进程间通信" style="text;html=1;align=center;verticalAlign=middle;resizable=0;points=[];labelBackgroundColor=#ffffff;" vertex="1" connectable="0" parent="HdVoO7i6c_h7ApPIf5o0-9">
          <mxGeometry x="-0.4333" y="-1" relative="1" as="geometry">
            <mxPoint as="offset" />
          </mxGeometry>
        </mxCell>
        <mxCell id="HdVoO7i6c_h7ApPIf5o0-11" value="Zygote创建进程" style="rounded=0;whiteSpace=wrap;html=1;" vertex="1" parent="1">
          <mxGeometry x="40" y="290" width="120" height="60" as="geometry" />
        </mxCell>
        <mxCell id="HdVoO7i6c_h7ApPIf5o0-12" value="&lt;div style=&quot;text-align: left&quot;&gt;&lt;br&gt;&lt;/div&gt;&lt;div style=&quot;text-align: left&quot;&gt;&lt;span&gt;1.创建Binder线程池&lt;/span&gt;&lt;/div&gt;&lt;div style=&quot;text-align: left&quot;&gt;&lt;span&gt;2.调用main&lt;/span&gt;&lt;/div&gt;&lt;div style=&quot;text-align: left&quot;&gt;&lt;span&gt;在main函数中创建ActivityThread.java&lt;/span&gt;&lt;/div&gt;&lt;div style=&quot;text-align: left&quot;&gt;&lt;span&gt;3.创建消息循环&lt;/span&gt;&lt;/div&gt;" style="rounded=0;whiteSpace=wrap;html=1;" vertex="1" parent="1">
          <mxGeometry x="40" y="410" width="120" height="90" as="geometry" />
        </mxCell>
        <mxCell id="HdVoO7i6c_h7ApPIf5o0-13" style="edgeStyle=orthogonalEdgeStyle;rounded=0;orthogonalLoop=1;jettySize=auto;html=1;entryX=0.5;entryY=0;entryDx=0;entryDy=0;" edge="1" parent="1" source="HdVoO7i6c_h7ApPIf5o0-14" target="HdVoO7i6c_h7ApPIf5o0-16">
          <mxGeometry relative="1" as="geometry" />
        </mxCell>
        <mxCell id="HdVoO7i6c_h7ApPIf5o0-14" value="ApplicationThread" style="rounded=0;whiteSpace=wrap;html=1;" vertex="1" parent="1">
          <mxGeometry x="390" y="290" width="120" height="60" as="geometry" />
        </mxCell>
        <mxCell id="HdVoO7i6c_h7ApPIf5o0-15" value="启动Activity" style="edgeStyle=orthogonalEdgeStyle;rounded=0;orthogonalLoop=1;jettySize=auto;html=1;" edge="1" parent="1" source="HdVoO7i6c_h7ApPIf5o0-16">
          <mxGeometry relative="1" as="geometry">
            <mxPoint x="450" y="540" as="targetPoint" />
          </mxGeometry>
        </mxCell>
        <mxCell id="HdVoO7i6c_h7ApPIf5o0-16" value="ActivityThread" style="rounded=0;whiteSpace=wrap;html=1;" vertex="1" parent="1">
          <mxGeometry x="390" y="410" width="120" height="60" as="geometry" />
        </mxCell>
        <mxCell id="HdVoO7i6c_h7ApPIf5o0-17" value="Instrumentation" style="rounded=0;whiteSpace=wrap;html=1;" vertex="1" parent="1">
          <mxGeometry x="390" y="540" width="120" height="60" as="geometry" />
        </mxCell>
      </root>
    </mxGraphModel>
  </diagram>
</mxfile>
